<?xml version="1.0" encoding="UTF-8"?> <svg xmlns="http://www.w3.org/2000/svg" xmlns:xlink="http://www.w3.org/1999/xlink" width="336.72" height="25" viewBox="0 0 336.72 25"><defs><clipPath id="a"><rect width="336.72" height="25" fill="#d36803"></rect></clipPath></defs><g clip-path="url(#a)"><path d="M375.385,1.326a3.167,3.167,0,0,0-.993-.655,3.154,3.154,0,0,0-2.41,0,3.094,3.094,0,0,0-1.663,1.655,3.073,3.073,0,0,0-.25,1.247,3,3,0,0,0,.25,1.231,3.113,3.113,0,0,0,.673.983,3.151,3.151,0,0,0,.99.655,3.154,3.154,0,0,0,2.41,0,3.116,3.116,0,0,0,1.917-2.9,3,3,0,0,0-.249-1.23,3.108,3.108,0,0,0-.674-.984m.221,3.277a2.613,2.613,0,0,1-1.395,1.42,2.653,2.653,0,0,1-2.047,0,2.673,2.673,0,0,1-.832-.563,2.58,2.58,0,0,1-.561-.84,2.649,2.649,0,0,1-.2-1.047,2.748,2.748,0,0,1,.2-1.071,2.559,2.559,0,0,1,.561-.849,2.673,2.673,0,0,1,.832-.563,2.559,2.559,0,0,1,1.024-.205,2.589,2.589,0,0,1,2.418,1.6,2.709,2.709,0,0,1,.2,1.051,2.755,2.755,0,0,1-.2,1.062" transform="translate(-66.586 -0.074)" fill="#d36803"></path><path d="M374.768,3.8a.873.873,0,0,0,.276-.715.959.959,0,0,0-.308-.794,1.518,1.518,0,0,0-.957-.248h-1.314V5.666h.5V4.112h.64l.982,1.554h.541L374.1,4.07a1.232,1.232,0,0,0,.672-.268m-1.189-.143h-.615V2.5h.774a2.574,2.574,0,0,1,.286.017.8.8,0,0,1,.262.075.466.466,0,0,1,.187.173.559.559,0,0,1,.071.3.61.61,0,0,1-.08.336.484.484,0,0,1-.217.176.986.986,0,0,1-.312.071c-.116.008-.236.012-.358.012" transform="translate(-67.016 -0.352)" fill="#d36803"></path><path d="M10.76,11.4a4.619,4.619,0,0,0,2.523-4.327,5.985,5.985,0,0,0-1.915-4.235c-1.945-1.75-4.437-1.75-6.93-1.75H0V23.8H6.019c1.458,0,4.1-.154,5.805-1.351a6.418,6.418,0,0,0,2.8-5.4A5.471,5.471,0,0,0,10.76,11.4m-6.6-6.384H5.9c2.371,0,3.222,1.105,3.222,2.455,0,2.455-2.614,2.455-3.586,2.455H4.164Zm2.1,14.854h-2.1V13.854H6.353c3.648,0,4.1,2.118,4.1,3.038,0,2.977-3.375,2.977-4.2,2.977" transform="translate(0 -0.187)" fill="#d36803"></path><path d="M21.158,23.8h12.1V19.869H25.322V14.5h7.6V10.57h-7.6V5.015h7.933V1.086h-12.1Z" transform="translate(-3.807 -0.187)" fill="#d36803"></path><path d="M44.994,1.086H40.831V23.8h5.664l5.162-3.929H44.994Z" transform="translate(-7.347 -0.187)" fill="#d36803"></path><path d="M74.613,10.07a8.185,8.185,0,0,1,.784,3.513,7.759,7.759,0,0,1-7.6,7.857,7.4,7.4,0,0,1-5.249-2.191L59.29,21.727a11.763,11.763,0,0,0,20.271-8.113A11.928,11.928,0,0,0,77.93,7.546Z" transform="translate(-10.668 -1.297)" fill="#d36803"></path><path d="M59.486,12.377a7.755,7.755,0,0,1,7.6-7.918A7.387,7.387,0,0,1,71.967,6.3l3.262-2.483a11.752,11.752,0,0,0-19.907,8.586A11.688,11.688,0,0,0,56.7,17.924l3.367-2.564a8,8,0,0,1-.577-2.984" transform="translate(-9.954 -0.091)" fill="#d36803"></path><path d="M84.527,4.871v.144h4.164V23.8h4.164V5.015h4.2V1.086H89.5Z" transform="translate(-15.209 -0.187)" fill="#d36803"></path><path d="M102.133,23.8h12.1V19.869H106.3V14.5h7.6V10.57h-7.6V5.015h7.933V1.086h-12.1Z" transform="translate(-18.376 -0.187)" fill="#d36803"></path><path d="M134.364,13.548a7.953,7.953,0,0,0,2.158-5.432,7.054,7.054,0,0,0-2.643-5.494c-1.277-1.043-2.887-1.534-5.472-1.534h-6.9V23.8h4.163l.062-8.686L131.69,23.8h5.045l-6.11-8.379a7.243,7.243,0,0,0,3.739-1.871m-8.694-1.6V5.015h2.675c3.252,0,4.013,2.179,4.013,3.437,0,1.2-.577,3.5-4.013,3.5Z" transform="translate(-21.862 -0.187)" fill="#d36803"></path><path d="M154.539.53A11.816,11.816,0,1,0,166.3,12.408,11.79,11.79,0,0,0,154.539.53m0,19.7a7.759,7.759,0,0,1-7.6-7.857,7.605,7.605,0,1,1,15.2,0,7.759,7.759,0,0,1-7.6,7.857" transform="translate(-25.689 -0.091)" fill="#d36803"></path><path d="M202.385,11.783v-.064a4.872,4.872,0,0,0,3.96-4.959c0-4.287-3.516-5.695-7.224-5.695h-6.684V23.716h6.843c7.225,0,8.174-4.8,8.174-6.271,0-3.295-1.932-5.406-5.069-5.662m-7.668-8.606h4.372c4.309,0,4.785,2.911,4.785,3.839,0,2.911-2.377,3.967-4.563,3.967h-4.594ZM199.089,21.6h-4.372V12.9h4.657c3.644,0,5.608,1.44,5.608,4.415s-2.6,4.287-5.894,4.287" transform="translate(-34.625 -0.183)" fill="#d36803"></path><path d="M222.9,1.065l-9.759,22.651H215.8l2.471-5.95h11.47l2.472,5.95h2.66L225.12,1.065Zm-3.771,14.589,4.88-11.9,4.847,11.9Z" transform="translate(-38.35 -0.183)" fill="#d36803"></path><path d="M246.222,1.065h-2.281V23.716h12.737V21.6H246.222Z" transform="translate(-43.892 -0.183)" fill="#d36803"></path><path d="M271.781,1.065l-9.759,22.651h2.661l2.472-5.95h11.47l2.471,5.95h2.661L274,1.065ZM268.01,15.654l4.879-11.9,4.847,11.9Z" transform="translate(-47.145 -0.183)" fill="#d36803"></path><path d="M309.084,20.261h-.062L295.65,1.065H292.8V23.715h2.281V4.328h.063l13.371,19.387h2.851V1.065h-2.282Z" transform="translate(-52.683 -0.183)" fill="#d36803"></path><path d="M333.079,22.061c-5.767,0-9.219-4.575-9.219-9.79s3.453-9.79,9.219-9.79a7.388,7.388,0,0,1,5.767,2.976l2-1.5A9.721,9.721,0,0,0,333.079.369a11.473,11.473,0,0,0-11.692,11.9,11.473,11.473,0,0,0,11.692,11.9,9.855,9.855,0,0,0,8.3-4.159l-1.87-1.343a7.168,7.168,0,0,1-6.432,3.391" transform="translate(-57.826 -0.063)" fill="#d36803"></path><path d="M352.8,13h10.868V10.887H352.8V3.177h11.628V1.065H350.514V23.716H364.8V21.6H352.8Z" transform="translate(-63.067 -0.183)" fill="#d36803"></path><path d="M383.2,12.539a9.683,9.683,0,0,1,9.488-9.887,9.244,9.244,0,0,1,6.6,2.788l2.255-1.717a12.429,12.429,0,0,0-21.3,8.842,12.347,12.347,0,0,0,1.62,6.132l2.345-1.785a10,10,0,0,1-1.011-4.373" transform="translate(-68.417 0)" fill="#d36803"></path><path d="M404.288,7.624l-2.34,1.781a10.2,10.2,0,0,1,1.019,4.444,9.688,9.688,0,0,1-9.489,9.81,9.239,9.239,0,0,1-6.6-2.786L384.612,22.6a12.442,12.442,0,0,0,21.31-8.719,12.615,12.615,0,0,0-1.634-6.252" transform="translate(-69.202 -1.311)" fill="#d36803"></path><path d="M394.543,19.8h.135a1.044,1.044,0,0,0,1.063-1.074V15.516h3.178a1.045,1.045,0,0,0,1.064-1.074v-.135a1.049,1.049,0,0,0-1.064-1.074h-3.178V10.024a1.048,1.048,0,0,0-1.063-1.074h-.135a1.044,1.044,0,0,0-1.063,1.074v3.209H390.3a1.045,1.045,0,0,0-1.064,1.074v.135a1.049,1.049,0,0,0,1.064,1.074h3.178v3.209a1.048,1.048,0,0,0,1.063,1.074" transform="translate(-70.035 -1.539)" fill="#d36803"></path></g></svg> 
